<svg width="29" height="28" viewBox="0 0 29 28" fill="none" xmlns="http://www.w3.org/2000/svg">
<path d="M22.7187 5.25H20.2329C19.9582 3.83927 19.2313 2.57168 18.1747 1.6609C17.1182 0.750113 15.7966 0.251818 14.4327 0.25H6.14664C4.5775 0.251985 3.07317 0.911103 1.96362 2.08278C0.854077 3.25445 0.229907 4.84301 0.228027 6.5L0.228027 17.75C0.231003 18.8695 0.589699 19.9556 1.24666 20.8343C1.90363 21.713 2.82084 22.3335 3.8514 22.5963C3.73985 23.2218 3.75891 23.8656 3.90726 24.4825C4.05561 25.0995 4.32966 25.6749 4.71031 26.1685C5.09095 26.6621 5.569 27.062 6.11111 27.3404C6.65322 27.6187 7.24632 27.7688 7.84903 27.7802C8.45174 27.7915 9.04953 27.6638 9.60069 27.4061C10.1518 27.1483 10.6431 26.7666 11.0402 26.2876C11.4372 25.8087 11.7305 25.244 11.8996 24.633C12.0687 24.022 12.1094 23.3794 12.0191 22.75H16.851C16.8206 22.9568 16.8044 23.1657 16.8025 23.375C16.8025 24.5353 17.239 25.6481 18.016 26.4686C18.7929 27.2891 19.8467 27.75 20.9455 27.75C22.0443 27.75 23.0981 27.2891 23.8751 26.4686C24.6521 25.6481 25.0886 24.5353 25.0886 23.375C25.0872 23.1136 25.063 22.8529 25.0163 22.5963C26.0465 22.333 26.9631 21.7123 27.6196 20.8337C28.2761 19.955 28.6345 18.8692 28.6374 17.75V11.5C28.6355 9.84301 28.0113 8.25445 26.9018 7.08278C25.7922 5.91111 24.2879 5.25199 22.7187 5.25ZM26.2699 11.5V12.75H20.3513V7.75H22.7187C23.6606 7.75 24.5638 8.14509 25.2298 8.84835C25.8958 9.55162 26.2699 10.5054 26.2699 11.5ZM2.59547 17.75V6.5C2.59547 5.50544 2.96961 4.55161 3.63558 3.84835C4.30156 3.14509 5.20481 2.75 6.14664 2.75H14.4327C15.3745 2.75 16.2778 3.14509 16.9437 3.84835C17.6097 4.55161 17.9839 5.50544 17.9839 6.5V20.25H4.96291C4.33503 20.25 3.73286 19.9866 3.28888 19.5178C2.8449 19.0489 2.59547 18.413 2.59547 17.75ZM9.6978 23.375C9.6978 23.8723 9.51073 24.3492 9.17775 24.7008C8.84476 25.0525 8.39313 25.25 7.92222 25.25C7.45131 25.25 6.99968 25.0525 6.66669 24.7008C6.33371 24.3492 6.14664 23.8723 6.14664 23.375C6.14736 23.1614 6.18466 22.9496 6.25672 22.75H9.58772C9.65978 22.9496 9.69707 23.1614 9.6978 23.375ZM20.9432 25.25C20.4722 25.25 20.0206 25.0525 19.6876 24.7008C19.3546 24.3492 19.1676 23.8723 19.1676 23.375C19.1681 23.1614 19.2054 22.9496 19.2777 22.75H22.6087C22.6809 22.9496 22.7182 23.1614 22.7187 23.375C22.7187 23.8723 22.5317 24.3492 22.1987 24.7008C21.8657 25.0525 21.4141 25.25 20.9432 25.25ZM23.9025 20.25H20.3513V15.25H26.2699V17.75C26.2699 18.413 26.0205 19.0489 25.5765 19.5178C25.1325 19.9866 24.5303 20.25 23.9025 20.25Z" fill="black"/>
</svg>
