<svg width="25" height="30" viewBox="0 0 25 30" fill="none" xmlns="http://www.w3.org/2000/svg">
<path d="M24.2828 14.2675C23.2518 19.7875 19.7669 21.7025 15.3232 21.7025H14.6485C14.0791 21.7025 13.6175 22.115 13.5465 22.6787L13.4754 22.9787L12.622 28.7612L12.5865 29.0237C12.4787 29.5875 12.0159 30 11.4832 30H6.78977C6.39914 29.9625 6.15056 29.5875 6.22158 29.2112L6.5767 26.6587H1.02978C0.603637 26.6212 0.31836 26.2087 0.390567 25.7575L4.08733 1.12625C4.19387 0.4875 4.72654 0 5.33142 0H14.149C17.2065 0 19.5894 0.675 20.869 2.2525C22.0775 3.71625 22.4327 5.29375 22.0775 7.62125C21.7935 7.47125 21.4727 7.32125 21.1175 7.20875C20.6559 7.05875 20.1931 6.94625 19.7314 6.87125C19.0567 6.75875 18.2742 6.68375 17.4563 6.68375H10.5587C9.98937 6.68375 9.52772 7.09625 9.4567 7.66L7.96402 17.4975L7.91668 17.8075C8.0315 17.1775 8.53931 16.6725 9.1726 16.6725H11.7685C16.8538 16.6725 20.8358 14.495 21.9734 8.18625C22.0089 7.99875 22.0444 7.81125 22.0799 7.62375C22.5771 7.88625 23.0044 8.225 23.3595 8.675C24.4959 10.025 24.709 11.9775 24.2828 14.2675Z" fill="black"/>
</svg>
